<svg height="512" viewBox="0 0 64 64" width="512" xmlns="http://www.w3.org/2000/svg"><path d="m52 10h9a0 0 0 0 1 0 0v15a3 3 0 0 1 -3 3h-6a0 0 0 0 1 0 0v-18a0 0 0 0 1 0 0z" fill="#44add8"/><path d="m41 28v-23h11a3 3 0 0 1 3 3v17a3 3 0 0 0 3 3z" fill="#2275ad"/><path d="m49 59h-39v-51a3 3 0 0 1 3-3h36z" fill="#44add8"/><path d="m24 5h-11a3 3 0 0 0 -3 3v5h39v-5a3 3 0 0 1 3-3z" fill="#3890ce"/><path d="m13 8h2v2h-2z" fill="#eb4042"/><path d="m17 8h2v2h-2z" fill="#fde700"/><path d="m21 8h2v2h-2z" fill="#88bf40"/><path d="m49 45.11-39 4.034v6.032l39-4.034z" fill="#3890ce"/><path d="m8.987 44.392h51v6h-51z" fill="#88bf40" transform="matrix(-.995 .103 -.103 -.995 73.667 90.984)"/><path d="m9.431 53-5.282-2.47 4.664-3.498z" fill="#ffc119"/><path d="m50.889 42.488h4v6h-4z" fill="#ffc119" transform="matrix(.995 -.103 .103 .995 -4.4 5.684)"/><path d="m15 18h8v8h-8z" fill="#ffc119"/><path d="m32 17h13v2h-13z" fill="#a1dbe8"/><path d="m26 21h19v2h-19z" fill="#a1dbe8"/><path d="m26 25h17v2h-17z" fill="#a1dbe8"/><path d="m28 17h2v2h-2z" fill="#a1dbe8"/><path d="m15 31h8v8h-8z" fill="#ffc119"/><g fill="#a1dbe8"><path d="m32 30h13v2h-13z"/><path d="m26 34h19v2h-19z"/><path d="m26 38h17v2h-17z"/><path d="m28 30h2v2h-2z"/><path d="m44 54h2v2h-2z"/><path d="m40 54h2v2h-2z"/><path d="m36 54h2v2h-2z"/></g><path d="m5 12h2v23h-2z" fill="#ccdce5"/><path d="m5 37h2v2h-2z" fill="#ccdce5"/></svg>